PathFileType	4	(X/Y/Z)	C:\Users\Basilio\Documents\Thesis Gigler\squatting_fais\c3dfiles\077\SLS_front_pre4\markers_experimental.trc
DataRate	CameraRate	NumFrames	NumMarkers	Units	OrigDataRate	OrigDataStartFrame	OrigNumFrames
200.000000	200.000000	4	60	mm	200.000000	594	1586
Frame#	Time	FHD			RBHD			C7			T10			CLAV			LSHO			LUUPA			LMUPA			LDUPA			LLEP			LMEP			LRAD			LUL			LRFIN			RSHO			RUPA1			RMUPA			RDUPA			RLEP			RMEP			RRAD			RUL			RUFIN			LASI			RASI			USACR			LSACR			RSACR			LTHI1			LTHI2			LTHI3			LTHI4			LLFC			LMFC			LTIB1			LTIB2			LTIB3			LTIB4			LLMAL			LHEE			LMT1			LMT2			LMT5			RTHI			RTHI2			RTHI3			RTHI4			RLFC			RMFC			RTIB1			RTIB2			RTIB3			RTIB4			RLMAL			RMMAL			RHEE			RMT1			RMT2			RMT5			LBHD			
		X1	Y1	Z1	X2	Y2	Z2	X3	Y3	Z3	X4	Y4	Z4	X5	Y5	Z5	X6	Y6	Z6	X7	Y7	Z7	X8	Y8	Z8	X9	Y9	Z9	X10	Y10	Z10	X11	Y11	Z11	X12	Y12	Z12	X13	Y13	Z13	X14	Y14	Z14	X15	Y15	Z15	X16	Y16	Z16	X17	Y17	Z17	X18	Y18	Z18	X19	Y19	Z19	X20	Y20	Z20	X21	Y21	Z21	X22	Y22	Z22	X23	Y23	Z23	X24	Y24	Z24	X25	Y25	Z25	X26	Y26	Z26	X27	Y27	Z27	X28	Y28	Z28	X29	Y29	Z29	X30	Y30	Z30	X31	Y31	Z31	X32	Y32	Z32	X33	Y33	Z33	X34	Y34	Z34	X35	Y35	Z35	X36	Y36	Z36	X37	Y37	Z37	X38	Y38	Z38	X39	Y39	Z39	X40	Y40	Z40	X41	Y41	Z41	X42	Y42	Z42	X43	Y43	Z43	X44	Y44	Z44	X45	Y45	Z45	X46	Y46	Z46	X47	Y47	Z47	X48	Y48	Z48	X49	Y49	Z49	X50	Y50	Z50	X51	Y51	Z51	X52	Y52	Z52	X53	Y53	Z53	X54	Y54	Z54	X55	Y55	Z55	X56	Y56	Z56	X57	Y57	Z57	X58	Y58	Z58	X59	Y59	Z59	X60	Y60	Z60	

595	2.97	-356.3034057617188	1844.466918945313	-1054.096557617188	-493.213836669922	1717.574584960938	-980.7901000976565	-519.5154418945314	1572.83349609375	-1068.859375	-481.1379394531251	1238.27099609375	-1055.467529296875	-349.1538696289063	1552.156982421875	-1061.581420898438	-373.2204895019532	1579.824462890625	-1238.552490234375	-197.3938903808594	1524.7109375	-1338.288330078125	-168.2181701660157	1555.43994140625	-1311.816162109375	-128.374267578125	1519.935913085938	-1342.869506835938	-64.74300384521486	1528.291137695313	-1337.920776367188	-61.83011627197267	1459.070434570313	-1306.353393554688	228.0019073486329	1544.934936523438	-1226.162719726563	232.4671630859376	1554.993408203125	-1304.6884765625	328.5525512695313	1566.85791015625	-1234.712524414063	-369.5532531738282	1578.434204101563	-893.0452880859377	-208.6372528076172	1529.052490234375	-784.889099121094	-180.8287963867188	1558.049438476563	-814.051940917969	-138.7943725585938	1527.883666992188	-782.1422119140627	-73.02584838867189	1533.069946289063	-789.5884399414065	-70.20145416259767	1463.264892578125	-823.8999633789065	212.4812774658204	1549.65771484375	-879.7793579101565	222.8181304931641	1560.190063476563	-801.812683105469	310.2922668457032	1568.47119140625	-879.2713012695315	-253.4466552734376	1063.556518554688	-1167.004272460938	-287.4668273925782	1108.277954101563	-891.3725585937502	-474.5714721679689	1128.435180664063	-1046.484741210938	-473.8799743652345	1097.207153320313	-1073.245239257813	-482.2608642578126	1096.392333984375	-1018.51513671875	-287.5565795898438	836.105163574219	-1197.087646484375	-253.7847900390626	760.2641601562501	-1184.085083007813	-205.7849884033204	767.9815063476564	-1178.014404296875	-278.4090270996094	707.9378051757814	-1167.838012695313	-242.9375915527344	564.9879760742189	-1128.122802734375	-248.9447784423829	557.9113769531251	-995.0786132812502	-252.7634277343751	346.8904113769532	-1034.345092773438	-278.1980590820313	299.1622314453126	-1106.014892578125	-254.2242126464844	295.2138061523438	-1065.132446289063	-281.4057312011719	223.5928955078126	-1030.266479492188	-353.0009460449219	110.9132537841797	-1077.504028320313	-418.2386779785157	84.68321228027345	-1029.648315429688	-209.9866027832032	53.73901748657228	-997.767272949219	-203.0046539306641	61.24818420410158	-1039.886840820313	-335.9927978515626	126.3574600219727	-990.0211181640627	-109.4927749633789	875.283142089844	-806.8903808593752	-42.58056640625001	877.0857543945315	-809.3735961914065	-25.11377525329591	904.9077758789065	-816.8841552734377	5.836331844329835	810.006530761719	-816.9483032226565	53.23252868652345	764.9102172851564	-816.188415527344	84.50083923339845	770.426696777344	-942.7454223632815	176.9322052001953	686.7908935546876	-830.2062988281252	172.6367950439453	585.5825195312501	-796.015319824219	209.1671295166016	607.7536010742189	-816.552429199219	239.8119812011719	574.8961791992189	-855.5416259765627	296.5352783203126	390.4133911132814	-810.8134765625002	312.6715393066407	413.0041809082032	-898.4761962890627	280.6442871093751	314.3461303710938	-866.9418945312502	448.0540771484376	468.3459472656251	-854.4558105468752	443.3057250976564	466.2376403808595	-816.1468505859377	443.7407226562501	437.3076477050782	-769.4465332031252	-485.8744506835939	1726.575927734375	-1126.9638671875	
596	2.975	-355.6791381835938	1844.215698242188	-1053.247436523438	-492.8049926757814	1717.96337890625	-980.4443359375002	-519.2036132812501	1572.75439453125	-1068.535888671875	-481.155487060547	1238.090698242188	-1055.514038085938	-349.0103759765626	1551.732543945313	-1061.345703125	-373.0682067871094	1579.584594726563	-1238.244262695313	-197.3492736816407	1524.528442382813	-1338.130126953125	-168.1435852050782	1555.210571289063	-1311.711059570313	-128.2398223876953	1519.782592773438	-1342.758178710938	-64.87441253662111	1528.223510742188	-1338.010986328125	-61.78794097900392	1458.972900390625	-1306.466796875	228.128402709961	1544.627685546875	-1226.116333007813	232.5353240966797	1554.799194335938	-1304.746215820313	328.6322326660157	1566.60107421875	-1234.724487304688	-369.3233337402344	1577.956665039063	-892.8161621093752	-208.3920135498047	1528.190307617188	-785.1461181640627	-180.6221618652344	1557.476318359375	-814.036071777344	-138.4932098388672	1527.477783203125	-782.1160278320315	-72.76491546630861	1532.320068359375	-789.5330810546877	-69.82286834716798	1462.829345703125	-823.830749511719	212.9141845703126	1549.216918945313	-879.8712158203127	222.5891418457032	1559.126220703125	-802.374450683594	310.6333007812501	1567.991455078125	-879.3021240234377	-253.500228881836	1063.305419921875	-1167.10546875	-287.6641540527344	1107.827026367188	-891.5022583007815	-474.5545349121095	1128.102783203125	-1046.57861328125	-473.8638000488282	1096.915283203125	-1073.426025390625	-482.3382568359376	1096.123657226563	-1018.670104980469	-287.2976989746094	835.896667480469	-1197.251953125	-252.9746093750001	759.9025268554689	-1184.022338867188	-205.0198974609376	767.7091064453126	-1177.698120117188	-278.9779052734376	708.1347045898439	-1167.96728515625	-242.047103881836	564.7492065429689	-1128.006958007813	-247.8197631835938	557.6127319335939	-994.7740478515627	-252.4253997802735	346.5250549316407	-1034.136352539063	-277.5234985351563	298.9191589355469	-1105.889282226563	-253.5374298095704	294.8305358886719	-1064.536499023438	-280.4087829589844	224.2893524169922	-1029.638916015625	-352.8489990234376	110.9019927978516	-1077.450439453125	-418.2555236816407	84.81734466552736	-1029.588745117188	-209.983139038086	53.68074798583986	-997.6441040039065	-202.9639434814454	61.34949111938478	-1039.7783203125	-335.9540100097657	126.3395538330078	-989.900329589844	-109.7242507934571	874.8306274414065	-807.0654907226565	-42.83093643188477	876.617126464844	-809.604187011719	-25.2583122253418	904.325866699219	-816.9431762695315	5.668669700622559	809.647155761719	-817.1294555664065	52.99618911743165	764.5267333984376	-816.5352783203127	84.21917724609376	770.015075683594	-942.9044189453127	176.8587646484375	686.3706054687501	-830.382995605469	172.408432006836	584.9583740234376	-796.2673950195315	208.9876861572266	607.0342407226564	-816.9123535156252	239.5443267822266	574.5231323242189	-855.9411621093752	296.4410400390626	390.0110778808595	-811.1881103515627	312.3110351562501	412.6333923339845	-898.8767089843752	280.4169616699219	313.8469848632813	-867.307067871094	447.881805419922	468.2456665039064	-854.8228149414065	443.1996154785157	465.7252807617189	-816.3877563476565	443.6557617187501	436.8632202148439	-769.6758422851565	-485.467987060547	1726.2177734375	-1126.513305664063	
597	2.98	-355.5325317382813	1843.640625	-1053.145751953125	-492.5042724609376	1717.662353515625	-979.8825683593752	-518.9842529296876	1572.546997070313	-1068.218627929688	-481.1928710937501	1237.743530273438	-1055.552978515625	-348.7881774902344	1551.460693359375	-1061.140625	-372.9211730957032	1579.454345703125	-1237.90283203125	-197.2450256347657	1524.421142578125	-1338.093139648438	-168.0021057128907	1554.986328125	-1311.587890625	-128.3776092529297	1519.724487304688	-1342.637451171875	-64.83499908447267	1527.988891601563	-1337.921508789063	-61.66026687622072	1458.700439453125	-1306.440307617188	228.351303100586	1544.31103515625	-1226.1630859375	232.4989776611329	1554.5869140625	-1304.796630859375	328.7464599609376	1566.264526367188	-1234.779296875	-368.9989929199219	1577.476928710938	-892.4973144531252	-208.0520172119141	1527.823120117188	-785.008483886719	-180.2529754638672	1557.02099609375	-813.8026123046877	-138.1822204589844	1526.763061523438	-781.8981933593752	-72.46179199218751	1531.727416992188	-789.5384521484377	-69.6478958129883	1462.053955078125	-823.7614746093752	213.1263427734376	1548.691162109375	-879.9932861328127	222.8025360107422	1558.566284179688	-802.3403930664065	310.8793945312501	1567.37841796875	-879.231140136719	-253.290756225586	1062.957397460938	-1167.058227539063	-287.7639770507813	1107.493041992188	-891.5135498046877	-474.7316894531251	1127.670532226563	-1046.668334960938	-474.0085754394532	1096.53955078125	-1073.580200195313	-482.1893920898439	1095.905395507813	-1018.864135742188	-286.6675109863282	835.537048339844	-1197.237548828125	-251.3518676757813	759.4690551757814	-1183.606201171875	-204.0864257812501	767.4100341796876	-1177.56396484375	-276.4944763183594	707.3035278320314	-1167.595092773438	-240.7728424072266	564.5131835937501	-1127.699096679688	-246.8690185546876	557.3192749023439	-994.6602172851565	-251.9178161621094	346.1681518554688	-1033.867553710938	-276.9072570800782	298.7734680175782	-1105.6806640625	-253.1573181152344	294.9967651367188	-1064.3466796875	-280.4373474121094	223.9810791015626	-1029.582641601563	-352.5766601562501	110.8977279663086	-1077.323486328125	-418.2469787597657	84.79833221435548	-1029.567016601563	-210.0347442626954	53.64139556884767	-997.5568847656252	-202.8824615478516	61.43199920654298	-1039.707397460938	-335.9561157226563	126.3309555053711	-989.7749633789065	-109.9336013793946	874.368347167969	-807.2493286132815	-43.02915191650391	876.114929199219	-809.7278442382815	-25.36520957946778	904.1843261718752	-817.0676269531252	5.384858131408692	808.9682617187502	-817.4482421875002	52.73874282836915	764.0625610351564	-816.8054199218752	84.22095489501955	769.5715332031252	-943.0742187500002	176.7526397705078	685.9481811523439	-830.6254882812502	172.3333282470703	584.7158203125001	-796.6271972656252	208.9028015136719	606.6307983398439	-817.2349853515627	239.3551330566407	574.1478271484376	-856.2048950195315	296.2280273437501	389.4782714843751	-811.5645751953127	312.0830078125001	412.3290405273439	-899.1297607421877	280.3694152832032	313.5445251464844	-867.723083496094	447.6383056640626	467.6778564453126	-855.2147216796877	443.051239013672	465.5316772460939	-816.7012939453127	443.507781982422	436.3399963378907	-770.0056152343752	-485.1706542968751	1725.747314453125	-1126.092163085938	
598	2.985	-355.2993469238282	1843.062133789063	-1052.679443359375	-492.0759277343751	1717.295776367188	-979.4960937500002	-518.8999023437501	1572.155639648438	-1067.8427734375	-481.279022216797	1237.366943359375	-1055.654418945313	-348.6210937500001	1551.017456054688	-1060.817016601563	-372.8017883300782	1579.463500976563	-1237.57763671875	-197.4034881591797	1524.353881835938	-1337.968994140625	-167.9643859863282	1554.76416015625	-1311.413452148438	-128.1179504394532	1519.59130859375	-1342.5205078125	-64.71150970458986	1527.733154296875	-1337.821899414063	-61.60815811157228	1458.542114257813	-1306.451416015625	228.3479309082032	1543.994995117188	-1226.224853515625	232.5111389160157	1554.334106445313	-1304.89306640625	328.8667907714844	1565.914306640625	-1234.828857421875	-368.7967529296876	1576.8623046875	-892.1787109375002	-207.6917419433594	1527.490112304688	-784.652282714844	-180.0328521728516	1556.2216796875	-813.766296386719	-137.7720489501953	1526.10400390625	-781.7927246093752	-72.08946228027345	1531.150512695313	-789.2739257812502	-69.10079193115236	1461.353393554688	-823.5625000000002	213.3119812011719	1547.886474609375	-879.8795166015627	223.0952453613282	1557.957275390625	-802.3458251953127	311.2162170410157	1566.806884765625	-879.1950683593752	-253.4118652343751	1062.656494140625	-1167.226684570313	-287.8779907226563	1107.317993164063	-891.5437011718752	-474.8776855468751	1127.243530273438	-1046.837158203125	-474.0941162109376	1096.073852539063	-1073.747802734375	-482.3973388671876	1095.479125976563	-1019.012817382813	-286.0242309570313	835.087341308594	-1197.250854492188	-250.5753326416016	759.3861083984376	-1183.617431640625	-203.1958312988282	767.3770141601564	-1177.40625	-276.0118713378907	707.0205078125001	-1167.654663085938	-239.5157165527344	564.2585449218751	-1127.45556640625	-245.8391571044922	556.9546508789064	-994.5654296875002	-251.1836395263672	346.0919494628907	-1033.469360351563	-276.3583068847657	298.5133666992188	-1105.57421875	-252.7434234619141	294.8916015625001	-1064.201782226563	-280.2270812988282	223.8167572021485	-1029.290405273438	-352.5205383300782	110.9244461059571	-1077.181396484375	-418.244354248047	84.85507202148439	-1029.455200195313	-210.0626983642579	53.56307601928712	-997.417907714844	-202.6296691894532	61.75313949584962	-1039.624145507813	-335.9907226562501	126.2803497314453	-989.6646118164065	-110.1232299804688	873.837097167969	-807.473083496094	-43.05960845947266	875.7314453125002	-809.7709960937502	-25.47789001464844	903.9158325195315	-817.3876953125002	5.287626266479493	808.489440917969	-817.6699829101565	52.63974761962892	763.6490478515626	-817.0250244140627	84.31357574462892	769.273376464844	-943.2107543945315	176.5972747802735	685.3786621093751	-830.9600219726565	172.1768798828125	584.2119750976564	-796.9112548828127	208.9109497070313	606.2553100585939	-817.5576171875002	239.2127380371094	573.6526489257814	-856.4484863281252	296.0356750488282	389.207244873047	-811.9053344726565	311.2749938964844	411.803436279297	-899.329040527344	280.2831115722657	313.2409057617188	-868.1250610351565	447.5441894531251	467.3671875000001	-855.4168090820315	442.7824096679689	464.8334045410157	-817.0750732421877	443.3211975097657	435.8821716308595	-770.3851318359377	-484.8131713867189	1725.356811523438	-1125.640380859375	
